<svg xmlns="http://www.w3.org/2000/svg" viewBox="0 0 100 100">
  <circle cx="50" cy="50" r="50" fill="#25D366"/>
  <path fill="white" d="M50 17C31.8 17 17 31.8 17 50c0 5.8 1.6 11.2 4.4 15.9L17 83l17.5-4.6C38.9 80.7 44.3 82 50 82c18.2 0 33-14.8 33-33S68.2 17 50 17zm16.4 45.4c-.7 1.9-3.5 3.6-4.8 3.7-.3 0-.6.1-.9.1-1.3 0-3.3-.5-7.8-2.4-5.7-2.4-9.5-8.3-9.8-8.7-.3-.4-2.4-3.2-2.4-6.1 0-2.9 1.5-4.3 2-4.8.5-.5 1.1-.7 1.5-.7l1.1.1c.3 0 .7.1 1.1 1 .4.9 1.5 3.6 1.6 3.9.1.2.2.5 0 .8-.2.3-.3.5-.6.8-.3.3-.6.6-.9.9-.3.3-.6.6-.3 1.1.3.5 1.5 2.5 3.3 4.1 2.3 2 4.2 2.7 4.8 3 .6.3 1 .2 1.3-.1.4-.4 1.6-1.9 2-2.5.4-.6.9-.5 1.5-.3.6.2 3.8 1.8 4.4 2.1.6.3 1 .5 1.2.8.2.3.2 1.8-.5 3.7z"/>
</svg>
